<svg xmlns="http://www.w3.org/2000/svg" xmlns:xlink="http://www.w3.org/1999/xlink" viewBox="0 0 141.54 83.98"><defs><linearGradient id="a" x1="70.77" y1="81.33" x2="70.77" y2="74.99" gradientTransform="translate(0 2)" gradientUnits="userSpaceOnUse"><stop offset="0" stop-color="#00b6ed"/><stop offset="1" stop-color="#122e5f"/></linearGradient><linearGradient id="m" x1="28.61" y1="54.39" x2="45.97" y2="37.03" gradientUnits="userSpaceOnUse"><stop offset="0" stop-color="#00b6ed"/><stop offset="0.21" stop-color="#02a4da"/><stop offset="1" stop-color="#122e5f"/></linearGradient><linearGradient id="n" x1="26.62" y1="0.73" x2="62.59" y2="36.69" gradientUnits="userSpaceOnUse"><stop offset="0" stop-color="#00b6ed"/><stop offset="0.51" stop-color="#0494ca"/><stop offset="1" stop-color="#122e5f"/></linearGradient><linearGradient id="o" x1="54.73" y1="54.39" x2="72.09" y2="37.03" xlink:href="#m"/><linearGradient id="p" x1="52.75" y1="0.73" x2="88.71" y2="36.69" xlink:href="#n"/><linearGradient id="q" x1="80.85" y1="54.39" x2="98.21" y2="37.03" xlink:href="#m"/><linearGradient id="r" x1="78.87" y1="0.73" x2="114.83" y2="36.69" xlink:href="#n"/></defs><title>Asset 5</title><path d="M7.35,83.76H5L0,71.68H2.54L6.17,81l3.64-9.36h2.54Z" style="fill:url(#a)"/><path d="M14.19,83.7v-12h2.25v12Z" style="fill:url(#a)"/><path d="M26.91,71.66h2.26v12h-1.4v0l-6.33-8.13V83.7H19.17v-12H21l5.9,7.45Z" style="fill:url(#a)"/><path d="M40.65,83.7h-9v-12h9v2.2H33.9v2.76h6.51v2.12H33.9v2.71h6.75Z" style="fill:url(#a)"/><path d="M51,71.68h2.49v.1l-4.08,5.84,4.2,6v.07H51.06L48,79.19,44.91,83.7H42.37v-.07l4.18-6-4.06-5.84v-.1H45l3,4.48Z" style="fill:url(#a)"/><path d="M58.49,73.74H54.67V71.68h9.9v2.06H60.75v10H58.49Z" style="fill:url(#a)"/><path d="M79.21,74.61a4.63,4.63,0,0,0-3.06-1.2A4.1,4.1,0,0,0,72,77.84a3.81,3.81,0,0,0,4.14,4,4,4,0,0,0,2.71-1V78.77H75.79v-2h5.15v5.06A6,6,0,0,1,76.15,84c-4.52,0-6.36-3-6.36-6.14,0-3.38,2.12-6.51,6.36-6.51a6.37,6.37,0,0,1,4.47,1.84Z" style="fill:url(#a)"/><path d="M85.5,71.68v9.93h6.18V83.7H83.23v-12Z" style="fill:url(#a)"/><path d="M105.17,77.76c0,3.11-1.94,6.22-6.17,6.22a5.86,5.86,0,0,1-6.19-6.2c0-3.17,2-6.34,6.19-6.34A6,6,0,0,1,105.17,77.76Zm-10.12,0c0,2,1.12,4.09,4,4.09s3.9-2.13,3.94-4.11S101.84,73.5,99,73.5,95,75.78,95.05,77.81Z" style="fill:url(#a)"/><path d="M117,75.16a2.43,2.43,0,0,1-1.56,2.32,2.93,2.93,0,0,1,1.92,2.68c0,2.68-2,3.54-4.5,3.54h-5.7v-12h5.7C115.27,71.68,117,72.74,117,75.16Zm-7.61,1.34h3.47c1.43,0,1.89-.6,1.89-1.28s-.45-1.48-1.89-1.48h-3.47Zm0,5.09h3.47c.93,0,2.25-.31,2.25-1.44s-1.32-1.65-2.25-1.65h-3.47Z" style="fill:url(#a)"/><path d="M128,81.44h-6.29l-1,2.26h-2.46l5.4-12h2.47l5.4,12H129Zm-3.15-7.24-2.23,5.12h4.47Z" style="fill:url(#a)"/><path d="M135.36,71.68v9.93h6.18V83.7h-8.45v-12Z" style="fill:url(#a)"/><path d="M7.35,83.76H5L0,71.68H2.54L6.17,81l3.64-9.36h2.54Z" style="fill:#0078c1"/><path d="M14.19,83.7v-12h2.25v12Z" style="fill:#0078c1"/><path d="M26.91,71.66h2.26v12h-1.4v0l-6.33-8.13V83.7H19.17v-12H21l5.9,7.45Z" style="fill:#0078c1"/><path d="M40.65,83.7h-9v-12h9v2.2H33.9v2.76h6.51v2.12H33.9v2.71h6.75Z" style="fill:#0078c1"/><path d="M51,71.68h2.49v.1l-4.08,5.84,4.2,6v.07H51.06L48,79.19,44.91,83.7H42.37v-.07l4.18-6-4.06-5.84v-.1H45l3,4.48Z" style="fill:#0078c1"/><path d="M58.49,73.74H54.67V71.68h9.9v2.06H60.75v10H58.49Z" style="fill:#0078c1"/><path d="M79.21,74.61a4.63,4.63,0,0,0-3.06-1.2A4.1,4.1,0,0,0,72,77.84a3.81,3.81,0,0,0,4.14,4,4,4,0,0,0,2.71-1V78.77H75.79v-2h5.15v5.06A6,6,0,0,1,76.15,84c-4.52,0-6.36-3-6.36-6.14,0-3.38,2.12-6.51,6.36-6.51a6.37,6.37,0,0,1,4.47,1.84Z" style="fill:#0078c1"/><path d="M85.5,71.68v9.93h6.18V83.7H83.23v-12Z" style="fill:#0078c1"/><path d="M105.17,77.76c0,3.11-1.94,6.22-6.17,6.22a5.86,5.86,0,0,1-6.19-6.2c0-3.17,2-6.34,6.19-6.34A6,6,0,0,1,105.17,77.76Zm-10.12,0c0,2,1.12,4.09,4,4.09s3.9-2.13,3.94-4.11S101.84,73.5,99,73.5,95,75.78,95.05,77.81Z" style="fill:#0078c1"/><path d="M117,75.16a2.43,2.43,0,0,1-1.56,2.32,2.93,2.93,0,0,1,1.92,2.68c0,2.68-2,3.54-4.5,3.54h-5.7v-12h5.7C115.27,71.68,117,72.74,117,75.16Zm-7.61,1.34h3.47c1.43,0,1.89-.6,1.89-1.28s-.45-1.48-1.89-1.48h-3.47Zm0,5.09h3.47c.93,0,2.25-.31,2.25-1.44s-1.32-1.65-2.25-1.65h-3.47Z" style="fill:#0078c1"/><path d="M128,81.44h-6.29l-1,2.26h-2.46l5.4-12h2.47l5.4,12H129Zm-3.15-7.24-2.23,5.12h4.47Z" style="fill:#0078c1"/><path d="M135.36,71.68v9.93h6.18V83.7h-8.45v-12Z" style="fill:#0078c1"/><polygon points="61.95 28.2 51.05 11.17 27.35 56.67 47.1 56.67 61.95 28.2" style="fill:url(#m)"/><polygon points="61.95 28.2 51.98 47.29 27.35 0 47.1 0 61.95 28.2" style="fill:url(#n)"/><polygon points="88.07 28.2 77.17 11.17 53.47 56.67 73.22 56.67 88.07 28.2" style="fill:url(#o)"/><polygon points="88.07 28.2 78.1 47.29 53.47 0 73.22 0 88.07 28.2" style="fill:url(#p)"/><polygon points="114.19 28.2 103.3 11.17 79.59 56.67 99.34 56.67 114.19 28.2" style="fill:url(#q)"/><polygon points="114.19 28.2 104.22 47.29 79.59 0 99.34 0 114.19 28.2" style="fill:url(#r)"/></svg>